# xmcd
#
# Track frame offsets:
#	150
#	16475
#	29170
#	45500
#	61168
#	77570
#	98668
#	110518
#	128778
#	144198
#	161860
#	175398
#	188878
#	206270
#
# Disc length: 2945 seconds
#
# Revision: 1
# Processed by: cddbd v1.4PL0 Copyright (c) Steve Scherf et al.
# Submitted via: audiograbber 1.82.02
#
DISCID=b80b7f0e
DTITLE=Various Artist - Mr. Music Country 95-04
DYEAR=1995
DGENRE=Country
TTITLE0=Brent Parlane With Joanne Campbell - Wife Of A Prisoner
TTITLE1=Gary Stewart - Honky Tonk Hardwood Floor
TTITLE2=Gina Jeffreys - I Don't Want Tonight To Be Over
TTITLE3=Harold Massey - Constant Reminder
TTITLE4=Cheryl Wheeler - Don't Forget The Guns
TTITLE5=John Hartford, Grandpa Jones, Marty Stuart and Thom Bresh - Dark As A Dun
TTITLE5=geon
TTITLE6=Jane Saunders - Dancing In The Rain
TTITLE7=Darrell McCall - I Guess I'm Gettin' Tired Of Lovin' You
TTITLE8=Rosie Flores - It's Over
TTITLE9=T Jae Christian - Someone To Love You
TTITLE10=Molly and The Heymakers - Nice Girl Finish Last
TTITLE11=Kenny Hess - Nature Of The Beast
TTITLE12=Spears, Billie Jo - We Need To Talk
TTITLE13=Lee Kernaghan - Leave Him In The Longyard
EXTD=
EXTT0=
EXTT1=
EXTT2=
EXTT3=
EXTT4=
EXTT5=
EXTT6=
EXTT7=
EXTT8=
EXTT9=
EXTT10=
EXTT11=
EXTT12=
EXTT13=
PLAYORDER=
